<mxfile host="app.diagrams.net" modified="2025-09-15T00:00:00.000Z" agent="Mozilla/5.0 (GPT)" version="24.7.9" type="device">
  <diagram id="project-flow" name="Project Flowchart">
    <mxGraphModel dx="1394" dy="786" grid="1" gridSize="10" guides="1" tooltips="1" connect="1" arrows="1" fold="1" page="1" pageScale="1" pageWidth="1920" pageHeight="1080" math="0" shadow="0">
      <root>
        <mxCell id="0"/>
        <mxCell id="1" parent="0"/>

        <!-- Title -->
        <mxCell id="t1" value="Sacred Sikkim - System Flow" style="text;html=1;fontSize=22;fontStyle=1;align=center;verticalAlign=middle;strokeColor=none;fillColor=none;" vertex="1" parent="1">
          <mxGeometry x="640" y="20" width="640" height="40" as="geometry"/>
        </mxCell>

        <!-- Frontend Group -->
        <mxCell id="g-frontend" value="Frontend" style="swimlane;childLayout=stackLayout;rounded=1;horizontal=1;startSize=32;fillColor=#f5f5f5;strokeColor=#999;gradientColor=none;fontStyle=1;" vertex="1" parent="1">
          <mxGeometry x="60" y="90" width="520" height="480" as="geometry"/>
        </mxCell>

        <mxCell id="fe-index" value="index.html\n- Navigation & Sections\n- Digital Archive\n- Stats Section (glass, animations)\n- About + Emojis/Doodles" style="rounded=1;whiteSpace=wrap;html=1;fillColor=#ffffff;strokeColor=#d4af37;gradientColor=none;" vertex="1" parent="g-frontend">
          <mxGeometry x="20" y="40" width="480" height="100" as="geometry"/>
        </mxCell>
        <mxCell id="fe-chat" value="AI Chat UI\n- Overlay + Messages\n- Doodle BG for messages\n- Streaming + typing indicator" style="rounded=1;whiteSpace=wrap;html=1;fillColor=#ffffff;strokeColor=#d4af37;" vertex="1" parent="g-frontend">
          <mxGeometry x="20" y="150" width="480" height="90" as="geometry"/>
        </mxCell>
        <mxCell id="fe-calendar" value="Festival Calendar Overlay\n- Month view + Polaroids\n- Client-side interactions" style="rounded=1;whiteSpace=wrap;html=1;fillColor=#ffffff;strokeColor=#d4af37;" vertex="1" parent="g-frontend">
          <mxGeometry x="20" y="245" width="480" height="80" as="geometry"/>
        </mxCell>
        <mxCell id="fe-map" value="Interactive Map\n- SVG/Leaflet visualizations" style="rounded=1;whiteSpace=wrap;html=1;fillColor=#ffffff;strokeColor=#d4af37;" vertex="1" parent="g-frontend">
          <mxGeometry x="20" y="330" width="480" height="70" as="geometry"/>
        </mxCell>
        <mxCell id="fe-assets" value="Static Assets\n- Images, videos, archive assets" style="rounded=1;whiteSpace=wrap;html=1;fillColor=#ffffff;strokeColor=#d4af37;" vertex="1" parent="g-frontend">
          <mxGeometry x="20" y="405" width="480" height="55" as="geometry"/>
        </mxCell>

        <!-- Backend Group -->
        <mxCell id="g-backend" value="Backend" style="swimlane;childLayout=stackLayout;rounded=1;horizontal=1;startSize=32;fillColor=#f5f5f5;strokeColor=#999;fontStyle=1;" vertex="1" parent="1">
          <mxGeometry x="720" y="90" width="520" height="360" as="geometry"/>
        </mxCell>

        <mxCell id="be-server-py" value="Flask API (backend/api/server.py)\n- /chat-stream SSE endpoint\n- Festival data serving\n- CORS" style="rounded=1;whiteSpace=wrap;html=1;fillColor=#fffdf7;strokeColor=#1e3a8a;" vertex="1" parent="g-backend">
          <mxGeometry x="20" y="40" width="480" height="90" as="geometry"/>
        </mxCell>
        <mxCell id="be-server-js" value="Node server (backend/api/server.js)\n- Optional proxy / static serve" style="rounded=1;whiteSpace=wrap;html=1;fillColor=#fffdf7;strokeColor=#1e3a8a;" vertex="1" parent="g-backend">
          <mxGeometry x="20" y="135" width="480" height="70" as="geometry"/>
        </mxCell>
        <mxCell id="be-services" value="Services/Utils\n- Chat orchestration\n- Festival calendar logic" style="rounded=1;whiteSpace=wrap;html=1;fillColor=#fffdf7;strokeColor=#1e3a8a;" vertex="1" parent="g-backend">
          <mxGeometry x="20" y="210" width="480" height="70" as="geometry"/>
        </mxCell>

        <!-- Data Group -->
        <mxCell id="g-data" value="Data & Assets" style="swimlane;childLayout=stackLayout;rounded=1;horizontal=1;startSize=32;fillColor=#f5f5f5;strokeColor=#999;fontStyle=1;" vertex="1" parent="1">
          <mxGeometry x="720" y="470" width="520" height="180" as="geometry"/>
        </mxCell>
        <mxCell id="data-archive" value="Digital Archive Assets (data/archive/digital_archive_assets)\n- historical/\n- manuscripts/\n- Sacred_art/\n- his_maps/" style="rounded=1;whiteSpace=wrap;html=1;fillColor=#ffffff;strokeColor=#0f766e;" vertex="1" parent="g-data">
          <mxGeometry x="20" y="40" width="480" height="120" as="geometry"/>
        </mxCell>

        <!-- External Model / LLM -->
        <mxCell id="g-ai" value="LLM / TTS (optional)" style="swimlane;childLayout=stackLayout;rounded=1;horizontal=1;startSize=32;fillColor=#f5f5f5;strokeColor=#999;fontStyle=1;" vertex="1" parent="1">
          <mxGeometry x="1260" y="90" width="520" height="200" as="geometry"/>
        </mxCell>
        <mxCell id="ai-engine" value="AI Engine\n- Mistral/Ollama integration (tests present)\n- Streaming responses" style="rounded=1;whiteSpace=wrap;html=1;fillColor=#ffffff;strokeColor=#9333ea;" vertex="1" parent="g-ai">
          <mxGeometry x="20" y="40" width="480" height="120" as="geometry"/>
        </mxCell>

        <!-- Flows -->
        <mxCell id="e1" edge="1" parent="1" source="fe-chat" target="be-server-py" style="endArrow=block;strokeColor=#555;">
          <mxGeometry relative="1" as="geometry">
            <mxPoint x="590" y="200" as="sourcePoint"/>
            <mxPoint x="720" y="200" as="targetPoint"/>
          </mxGeometry>
        </mxCell>
        <mxCell id="e2" value="SSE /chat-stream" edge="1" parent="1" source="be-server-py" target="fe-chat" style="endArrow=block;strokeColor=#555;dashed=1;">
          <mxGeometry relative="1" as="geometry">
            <mxPoint x="720" y="220" as="sourcePoint"/>
            <mxPoint x="590" y="220" as="targetPoint"/>
          </mxGeometry>
        </mxCell>
        <mxCell id="e3" edge="1" parent="1" source="be-server-py" target="ai-engine" style="endArrow=block;strokeColor=#555;">
          <mxGeometry relative="1" as="geometry"/>
        </mxCell>
        <mxCell id="e4" edge="1" parent="1" source="fe-index" target="data-archive" style="endArrow=block;strokeColor=#555;">
          <mxGeometry relative="1" as="geometry"/>
        </mxCell>
        <mxCell id="e5" edge="1" parent="1" source="fe-calendar" target="be-services" style="endArrow=block;strokeColor=#555;">
          <mxGeometry relative="1" as="geometry"/>
        </mxCell>
        <mxCell id="e6" edge="1" parent="1" source="fe-map" target="fe-index" style="endArrow=block;strokeColor=#555;">
          <mxGeometry relative="1" as="geometry"/>
        </mxCell>
      </root>
    </mxGraphModel>
  </diagram>
</mxfile>


